<mxfile host="app.diagrams.net" agent="Mozilla/5.0 (X11; Linux x86_64) AppleWebKit/537.36 (KHTML, like Gecko) Chrome/126.0.0.0 Safari/537.36" version="24.7.5" pages="2">
  <diagram name="‫صفحه - 1‬" id="th1CTg-6v1FbNG2bYKaC">
    <mxGraphModel dx="941" dy="523" grid="1" gridSize="10" guides="1" tooltips="1" connect="1" arrows="1" fold="1" page="1" pageScale="1" pageWidth="827" pageHeight="1169" math="0" shadow="0">
      <root>
        <mxCell id="0" />
        <mxCell id="1" parent="0" />
        <mxCell id="SiWFL1iWXHyE2DdlsyHQ-2" style="edgeStyle=orthogonalEdgeStyle;rounded=0;orthogonalLoop=1;jettySize=auto;html=1;" edge="1" parent="1" source="SiWFL1iWXHyE2DdlsyHQ-1">
          <mxGeometry relative="1" as="geometry">
            <mxPoint x="410" y="285" as="targetPoint" />
          </mxGeometry>
        </mxCell>
        <mxCell id="SiWFL1iWXHyE2DdlsyHQ-1" value="&lt;font style=&quot;font-size: 26px;&quot;&gt;client&lt;/font&gt;" style="ellipse;whiteSpace=wrap;html=1;" vertex="1" parent="1">
          <mxGeometry x="60" y="220" width="120" height="130" as="geometry" />
        </mxCell>
        <mxCell id="SiWFL1iWXHyE2DdlsyHQ-3" value="http Request" style="text;html=1;align=center;verticalAlign=middle;resizable=0;points=[];autosize=1;strokeColor=none;fillColor=none;" vertex="1" parent="1">
          <mxGeometry x="230" y="250" width="90" height="30" as="geometry" />
        </mxCell>
        <mxCell id="Myr80R1P8JGl3SPwv0gJ-1" value="" style="rounded=1;whiteSpace=wrap;html=1;" vertex="1" parent="1">
          <mxGeometry x="410" y="170" width="250" height="190" as="geometry" />
        </mxCell>
        <mxCell id="Myr80R1P8JGl3SPwv0gJ-2" value="server" style="text;html=1;align=center;verticalAlign=middle;resizable=0;points=[];autosize=1;strokeColor=none;fillColor=none;" vertex="1" parent="1">
          <mxGeometry x="414" y="140" width="60" height="30" as="geometry" />
        </mxCell>
        <mxCell id="Myr80R1P8JGl3SPwv0gJ-3" value="" style="rounded=1;whiteSpace=wrap;html=1;" vertex="1" parent="1">
          <mxGeometry x="440" y="220" width="200" height="120" as="geometry" />
        </mxCell>
        <mxCell id="Myr80R1P8JGl3SPwv0gJ-4" value="django" style="text;html=1;align=center;verticalAlign=middle;resizable=0;points=[];autosize=1;strokeColor=none;fillColor=none;" vertex="1" parent="1">
          <mxGeometry x="440" y="190" width="60" height="30" as="geometry" />
        </mxCell>
        <mxCell id="Myr80R1P8JGl3SPwv0gJ-10" style="edgeStyle=orthogonalEdgeStyle;rounded=0;orthogonalLoop=1;jettySize=auto;html=1;entryX=0;entryY=0.5;entryDx=0;entryDy=0;" edge="1" parent="1" source="Myr80R1P8JGl3SPwv0gJ-5" target="Myr80R1P8JGl3SPwv0gJ-7">
          <mxGeometry relative="1" as="geometry" />
        </mxCell>
        <mxCell id="Myr80R1P8JGl3SPwv0gJ-5" value="urls" style="rounded=0;whiteSpace=wrap;html=1;" vertex="1" parent="1">
          <mxGeometry x="450" y="250" width="40" height="60" as="geometry" />
        </mxCell>
        <mxCell id="Myr80R1P8JGl3SPwv0gJ-7" value="view function" style="rounded=0;whiteSpace=wrap;html=1;" vertex="1" parent="1">
          <mxGeometry x="520" y="240" width="90" height="30" as="geometry" />
        </mxCell>
        <mxCell id="Myr80R1P8JGl3SPwv0gJ-8" value="view function" style="rounded=0;whiteSpace=wrap;html=1;" vertex="1" parent="1">
          <mxGeometry x="520" y="270" width="90" height="30" as="geometry" />
        </mxCell>
        <mxCell id="Myr80R1P8JGl3SPwv0gJ-9" value="view function" style="rounded=0;whiteSpace=wrap;html=1;" vertex="1" parent="1">
          <mxGeometry x="520" y="300" width="90" height="30" as="geometry" />
        </mxCell>
        <mxCell id="Myr80R1P8JGl3SPwv0gJ-12" value="" style="rounded=1;whiteSpace=wrap;html=1;" vertex="1" parent="1">
          <mxGeometry x="220" y="430" width="170" height="210" as="geometry" />
        </mxCell>
        <mxCell id="Myr80R1P8JGl3SPwv0gJ-13" value="" style="rounded=1;whiteSpace=wrap;html=1;" vertex="1" parent="1">
          <mxGeometry x="420" y="430" width="170" height="210" as="geometry" />
        </mxCell>
        <mxCell id="Myr80R1P8JGl3SPwv0gJ-14" value="" style="rounded=1;whiteSpace=wrap;html=1;" vertex="1" parent="1">
          <mxGeometry x="630" y="430" width="170" height="210" as="geometry" />
        </mxCell>
        <mxCell id="Myr80R1P8JGl3SPwv0gJ-15" value="blog" style="text;html=1;align=center;verticalAlign=middle;resizable=0;points=[];autosize=1;strokeColor=none;fillColor=none;" vertex="1" parent="1">
          <mxGeometry x="220" y="400" width="50" height="30" as="geometry" />
        </mxCell>
        <mxCell id="Myr80R1P8JGl3SPwv0gJ-16" value="login" style="text;html=1;align=center;verticalAlign=middle;resizable=0;points=[];autosize=1;strokeColor=none;fillColor=none;" vertex="1" parent="1">
          <mxGeometry x="424" y="400" width="50" height="30" as="geometry" />
        </mxCell>
        <mxCell id="Myr80R1P8JGl3SPwv0gJ-17" value="my-account" style="text;html=1;align=center;verticalAlign=middle;resizable=0;points=[];autosize=1;strokeColor=none;fillColor=none;" vertex="1" parent="1">
          <mxGeometry x="630" y="400" width="90" height="30" as="geometry" />
        </mxCell>
        <mxCell id="Myr80R1P8JGl3SPwv0gJ-24" value="Blog Page Content" style="rounded=1;whiteSpace=wrap;html=1;" vertex="1" parent="1">
          <mxGeometry x="230" y="470" width="150" height="110" as="geometry" />
        </mxCell>
        <mxCell id="Myr80R1P8JGl3SPwv0gJ-25" value="Login form" style="rounded=1;whiteSpace=wrap;html=1;" vertex="1" parent="1">
          <mxGeometry x="430" y="470" width="150" height="110" as="geometry" />
        </mxCell>
        <mxCell id="Myr80R1P8JGl3SPwv0gJ-26" value="Profile Detail" style="rounded=1;whiteSpace=wrap;html=1;" vertex="1" parent="1">
          <mxGeometry x="640" y="470" width="150" height="110" as="geometry" />
        </mxCell>
        <mxCell id="Myr80R1P8JGl3SPwv0gJ-28" value="" style="rounded=1;whiteSpace=wrap;html=1;" vertex="1" parent="1">
          <mxGeometry x="20" y="430" width="170" height="210" as="geometry" />
        </mxCell>
        <mxCell id="Myr80R1P8JGl3SPwv0gJ-35" style="edgeStyle=orthogonalEdgeStyle;rounded=0;orthogonalLoop=1;jettySize=auto;html=1;" edge="1" parent="1" source="Myr80R1P8JGl3SPwv0gJ-29">
          <mxGeometry relative="1" as="geometry">
            <mxPoint x="100" y="415" as="targetPoint" />
          </mxGeometry>
        </mxCell>
        <mxCell id="Myr80R1P8JGl3SPwv0gJ-29" value="Base" style="text;html=1;align=center;verticalAlign=middle;resizable=0;points=[];autosize=1;strokeColor=none;fillColor=none;" vertex="1" parent="1">
          <mxGeometry x="20" y="400" width="50" height="30" as="geometry" />
        </mxCell>
        <mxCell id="Myr80R1P8JGl3SPwv0gJ-30" value="header" style="rounded=1;whiteSpace=wrap;html=1;" vertex="1" parent="1">
          <mxGeometry x="30" y="440" width="150" height="20" as="geometry" />
        </mxCell>
        <mxCell id="Myr80R1P8JGl3SPwv0gJ-31" value="Footer" style="rounded=1;whiteSpace=wrap;html=1;" vertex="1" parent="1">
          <mxGeometry x="30" y="580" width="150" height="45" as="geometry" />
        </mxCell>
        <mxCell id="Myr80R1P8JGl3SPwv0gJ-32" value="PlaceHolder&lt;br&gt;body" style="rounded=1;whiteSpace=wrap;html=1;" vertex="1" parent="1">
          <mxGeometry x="30" y="470" width="150" height="100" as="geometry" />
        </mxCell>
        <mxCell id="Myr80R1P8JGl3SPwv0gJ-36" value="Master Page" style="text;html=1;align=center;verticalAlign=middle;resizable=0;points=[];autosize=1;strokeColor=none;fillColor=none;" vertex="1" parent="1">
          <mxGeometry x="100" y="400" width="90" height="30" as="geometry" />
        </mxCell>
      </root>
    </mxGraphModel>
  </diagram>
  <diagram id="K0clZsfL8IrOo3DzxM2_" name="‫صفحه - 2‬">
    <mxGraphModel dx="1364" dy="759" grid="1" gridSize="10" guides="1" tooltips="1" connect="1" arrows="1" fold="1" page="1" pageScale="1" pageWidth="827" pageHeight="1169" math="0" shadow="0">
      <root>
        <mxCell id="0" />
        <mxCell id="1" parent="0" />
      </root>
    </mxGraphModel>
  </diagram>
</mxfile>
